# xmcd
#
# Track frame offsets:
# 150
# 16102
# 30792
# 47620
# 60497
# 73505
# 89700
# 105975
# 123685
# 139847
#
# Disc length: 2060 seconds
#
#
# Revision: 0
# Processed by: cddbd v1.5.1PL2 Copyright (c) Steve Scherf et al.
# Submitted via: FreeRIP 2.942 
#
DISCID=7b080a0a
DTITLE=Cicero Nogueira - Cicero Nogueira-vol 3
DYEAR=1900
DGENRE=gospel
TTITLE0=Rebeca de Isaque
TTITLE1=Ele opera de verdade
TTITLE2=Chuva no deserto
TTITLE3=O crente e o impio
TTITLE4=A queda da Babilonia
TTITLE5=Duas naturezas
TTITLE6=Sou teu amigo
TTITLE7=Crente chorão
TTITLE8=A plenitude do amor
TTITLE9=Noite de angustia
EXTD=
EXTT0=
EXTT1=
EXTT2=
EXTT3=
EXTT4=
EXTT5=
EXTT6=
EXTT7=
EXTT8=
EXTT9=
PLAYORDER=
